<svg width="141" height="45" viewBox="0 0 141 45" fill="none" xmlns="http://www.w3.org/2000/svg">
<path d="M17.64 24.36C17.64 24.84 17.61 25.34 17.55 25.86H5.94C6.02 26.9 6.35 27.7 6.93 28.26C7.53 28.8 8.26 29.07 9.12 29.07C10.4 29.07 11.29 28.53 11.79 27.45H17.25C16.97 28.55 16.46 29.54 15.72 30.42C15 31.3 14.09 31.99 12.99 32.49C11.89 32.99 10.66 33.24 9.3 33.24C7.66 33.24 6.2 32.89 4.92 32.19C3.64 31.49 2.64 30.49 1.92 29.19C1.2 27.89 0.84 26.37 0.84 24.63C0.84 22.89 1.19 21.37 1.89 20.07C2.61 18.77 3.61 17.77 4.89 17.07C6.17 16.37 7.64 16.02 9.3 16.02C10.92 16.02 12.36 16.36 13.62 17.04C14.88 17.72 15.86 18.69 16.56 19.95C17.28 21.21 17.64 22.68 17.64 24.36ZM12.39 23.01C12.39 22.13 12.09 21.43 11.49 20.91C10.89 20.39 10.14 20.13 9.24 20.13C8.38 20.13 7.65 20.38 7.05 20.88C6.47 21.38 6.11 22.09 5.97 23.01H12.39ZM27.1563 33.24C25.6963 33.24 24.3963 32.99 23.2563 32.49C22.1163 31.99 21.2163 31.31 20.5563 30.45C19.8963 29.57 19.5263 28.59 19.4463 27.51H24.5163C24.5763 28.09 24.8463 28.56 25.3263 28.92C25.8063 29.28 26.3963 29.46 27.0963 29.46C27.7363 29.46 28.2263 29.34 28.5663 29.1C28.9263 28.84 29.1063 28.51 29.1063 28.11C29.1063 27.63 28.8563 27.28 28.3563 27.06C27.8563 26.82 27.0463 26.56 25.9263 26.28C24.7263 26 23.7263 25.71 22.9263 25.41C22.1263 25.09 21.4363 24.6 20.8563 23.94C20.2763 23.26 19.9863 22.35 19.9863 21.21C19.9863 20.25 20.2463 19.38 20.7663 18.6C21.3063 17.8 22.0863 17.17 23.1063 16.71C24.1463 16.25 25.3763 16.02 26.7963 16.02C28.8963 16.02 30.5463 16.54 31.7463 17.58C32.9663 18.62 33.6663 20 33.8463 21.72H29.1063C29.0263 21.14 28.7663 20.68 28.3263 20.34C27.9063 20 27.3463 19.83 26.6463 19.83C26.0463 19.83 25.5863 19.95 25.2663 20.19C24.9463 20.41 24.7863 20.72 24.7863 21.12C24.7863 21.6 25.0363 21.96 25.5363 22.2C26.0563 22.44 26.8563 22.68 27.9363 22.92C29.1763 23.24 30.1863 23.56 30.9663 23.88C31.7463 24.18 32.4263 24.68 33.0063 25.38C33.6063 26.06 33.9163 26.98 33.9363 28.14C33.9363 29.12 33.6563 30 33.0963 30.78C32.5563 31.54 31.7663 32.14 30.7263 32.58C29.7063 33.02 28.5163 33.24 27.1563 33.24ZM43.8848 33.24C42.4248 33.24 41.1248 32.99 39.9848 32.49C38.8448 31.99 37.9448 31.31 37.2848 30.45C36.6248 29.57 36.2548 28.59 36.1748 27.51H41.2448C41.3048 28.09 41.5748 28.56 42.0548 28.92C42.5348 29.28 43.1248 29.46 43.8248 29.46C44.4648 29.46 44.9548 29.34 45.2948 29.1C45.6548 28.84 45.8348 28.51 45.8348 28.11C45.8348 27.63 45.5848 27.28 45.0848 27.06C44.5848 26.82 43.7748 26.56 42.6548 26.28C41.4548 26 40.4548 25.71 39.6548 25.41C38.8548 25.09 38.1648 24.6 37.5848 23.94C37.0048 23.26 36.7148 22.35 36.7148 21.21C36.7148 20.25 36.9748 19.38 37.4948 18.6C38.0348 17.8 38.8148 17.17 39.8348 16.71C40.8748 16.25 42.1048 16.02 43.5248 16.02C45.6248 16.02 47.2748 16.54 48.4748 17.58C49.6948 18.62 50.3948 20 50.5748 21.72H45.8348C45.7548 21.14 45.4948 20.68 45.0548 20.34C44.6348 20 44.0748 19.83 43.3748 19.83C42.7748 19.83 42.3148 19.95 41.9948 20.19C41.6748 20.41 41.5148 20.72 41.5148 21.12C41.5148 21.6 41.7648 21.96 42.2648 22.2C42.7848 22.44 43.5848 22.68 44.6648 22.92C45.9048 23.24 46.9148 23.56 47.6948 23.88C48.4748 24.18 49.1548 24.68 49.7348 25.38C50.3348 26.06 50.6448 26.98 50.6648 28.14C50.6648 29.12 50.3848 30 49.8248 30.78C49.2848 31.54 48.4948 32.14 47.4548 32.58C46.4348 33.02 45.2448 33.24 43.8848 33.24ZM69.5834 24.36C69.5834 24.84 69.5534 25.34 69.4934 25.86H57.8834C57.9634 26.9 58.2934 27.7 58.8734 28.26C59.4734 28.8 60.2034 29.07 61.0634 29.07C62.3434 29.07 63.2334 28.53 63.7334 27.45H69.1934C68.9134 28.55 68.4034 29.54 67.6634 30.42C66.9434 31.3 66.0334 31.99 64.9334 32.49C63.8334 32.99 62.6034 33.24 61.2434 33.24C59.6034 33.24 58.1434 32.89 56.8634 32.19C55.5834 31.49 54.5834 30.49 53.8634 29.19C53.1434 27.89 52.7834 26.37 52.7834 24.63C52.7834 22.89 53.1334 21.37 53.8334 20.07C54.5534 18.77 55.5534 17.77 56.8334 17.07C58.1134 16.37 59.5834 16.02 61.2434 16.02C62.8634 16.02 64.3034 16.36 65.5634 17.04C66.8234 17.72 67.8034 18.69 68.5034 19.95C69.2234 21.21 69.5834 22.68 69.5834 24.36ZM64.3334 23.01C64.3334 22.13 64.0334 21.43 63.4334 20.91C62.8334 20.39 62.0834 20.13 61.1834 20.13C60.3234 20.13 59.5934 20.38 58.9934 20.88C58.4134 21.38 58.0534 22.09 57.9134 23.01H64.3334ZM82.4897 16.08C84.4497 16.08 86.0097 16.72 87.1697 18C88.3497 19.26 88.9397 21 88.9397 23.22V33H83.8397V23.91C83.8397 22.79 83.5497 21.92 82.9697 21.3C82.3897 20.68 81.6097 20.37 80.6297 20.37C79.6497 20.37 78.8697 20.68 78.2897 21.3C77.7097 21.92 77.4197 22.79 77.4197 23.91V33H72.2897V16.26H77.4197V18.48C77.9397 17.74 78.6397 17.16 79.5197 16.74C80.3997 16.3 81.3897 16.08 82.4897 16.08ZM101.835 28.65V33H99.2245C97.3645 33 95.9145 32.55 94.8745 31.65C93.8345 30.73 93.3145 29.24 93.3145 27.18V20.52H91.2745V16.26H93.3145V12.18H98.4445V16.26H101.805V20.52H98.4445V27.24C98.4445 27.74 98.5645 28.1 98.8045 28.32C99.0445 28.54 99.4445 28.65 100.005 28.65H101.835ZM107.272 14.52C106.372 14.52 105.632 14.26 105.052 13.74C104.492 13.2 104.212 12.54 104.212 11.76C104.212 10.96 104.492 10.3 105.052 9.78C105.632 9.24 106.372 8.97 107.272 8.97C108.152 8.97 108.872 9.24 109.432 9.78C110.012 10.3 110.302 10.96 110.302 11.76C110.302 12.54 110.012 13.2 109.432 13.74C108.872 14.26 108.152 14.52 107.272 14.52ZM109.822 16.26V33H104.692V16.26H109.822ZM112.52 24.6C112.52 22.88 112.84 21.37 113.48 20.07C114.14 18.77 115.03 17.77 116.15 17.07C117.27 16.37 118.52 16.02 119.9 16.02C121.08 16.02 122.11 16.26 122.99 16.74C123.89 17.22 124.58 17.85 125.06 18.63V16.26H130.19V33H125.06V30.63C124.56 31.41 123.86 32.04 122.96 32.52C122.08 33 121.05 33.24 119.87 33.24C118.51 33.24 117.27 32.89 116.15 32.19C115.03 31.47 114.14 30.46 113.48 29.16C112.84 27.84 112.52 26.32 112.52 24.6ZM125.06 24.63C125.06 23.35 124.7 22.34 123.98 21.6C123.28 20.86 122.42 20.49 121.4 20.49C120.38 20.49 119.51 20.86 118.79 21.6C118.09 22.32 117.74 23.32 117.74 24.6C117.74 25.88 118.09 26.9 118.79 27.66C119.51 28.4 120.38 28.77 121.4 28.77C122.42 28.77 123.28 28.4 123.98 27.66C124.7 26.92 125.06 25.91 125.06 24.63ZM139.031 10.8V33H133.901V10.8H139.031Z" fill="#010312"/>
<circle cx="107" cy="10.5" r="4" fill="#FF8000"/>
</svg>
